<?xml version="1.0" standalone="no"?>
<!DOCTYPE svg PUBLIC "-//W3C//DTD SVG 20010904//EN"
 "http://www.w3.org/TR/2001/REC-SVG-20010904/DTD/svg10.dtd">
<svg version="1.0" xmlns="http://www.w3.org/2000/svg"
 width="512.000000pt" height="512.000000pt" viewBox="0 0 512.000000 512.000000"
 preserveAspectRatio="xMidYMid meet">
<metadata>
Created by potrace 1.16, written by Peter Selinger 2001-2019
</metadata>
<rect width="100%" height="100%" fill="yellow"/>
<g transform="translate(0.000000,512.000000) scale(0.100000,-0.100000)"
fill="#000000" stroke="none">
<path d="M1520 4483 c-69 -25 -82 -123 -17 -123 18 0 17 2 -3 18 -33 27 -21
69 25 88 47 19 42 34 -5 17z"/>
<path d="M3120 4454 c-88 -23 -253 -86 -274 -105 -4 -4 -5 -12 -2 -17 4 -7 43
7 99 33 127 60 260 95 365 95 53 0 81 4 77 10 -12 19 -166 10 -265 -16z"/>
<path d="M1623 4464 c-31 -14 -8 -22 47 -17 105 10 307 -35 422 -93 54 -27 68
-30 68 -10 0 16 -130 67 -245 97 -77 20 -267 35 -292 23z"/>
<path d="M2166 4333 c-4 -9 -5 -16 -4 -17 2 -1 31 -25 66 -55 47 -40 66 -51
75 -42 13 13 -21 52 -88 100 -37 26 -44 28 -49 14z"/>
<path d="M2751 4285 c-51 -54 -63 -94 -17 -58 90 73 104 86 99 99 -9 25 -29
15 -82 -41z"/>
<path d="M3420 4200 c0 -11 -24 -45 -54 -76 -45 -46 -59 -55 -78 -51 -18 5
-32 -1 -55 -22 -23 -20 -35 -25 -42 -18 -8 8 -11 7 -11 -2 0 -7 -6 -11 -12 -8
-17 6 -73 -44 -125 -111 -35 -45 -43 -62 -42 -96 0 -22 3 -49 7 -58 12 -29 -5
-240 -22 -288 -9 -25 -31 -59 -48 -77 -36 -37 -30 -60 10 -39 62 32 106 109
123 214 15 88 5 156 -24 177 -12 9 -16 15 -8 15 10 0 12 11 7 48 -5 36 -3 49
6 49 21 0 148 95 148 111 0 10 -4 11 -12 5 -7 -5 -32 -24 -55 -42 -24 -18 -43
-30 -43 -27 0 3 25 24 55 47 41 31 60 39 77 34 21 -6 22 -5 5 8 -16 13 -16 15
-1 21 8 3 25 6 37 6 33 0 110 32 97 40 -7 4 14 21 52 42 75 41 84 65 39 98
l-31 21 0 -21z m40 -44 c0 -16 -24 -38 -33 -30 -8 9 11 44 23 44 6 0 10 -6 10
-14z"/>
<path d="M2307 4204 c-4 -4 5 -20 19 -37 31 -37 63 -99 79 -152 l12 -40 -41
-20 c-28 -15 -47 -33 -61 -62 -12 -24 -36 -51 -58 -64 -24 -15 -46 -40 -59
-69 -12 -26 -37 -56 -59 -72 -50 -36 -73 -81 -73 -145 0 -39 5 -60 23 -84 14
-19 18 -30 10 -27 -24 7 -49 71 -49 124 0 28 9 86 21 130 41 154 42 163 25
188 -49 76 -198 209 -180 161 5 -11 2 -13 -10 -9 -9 3 -16 9 -16 13 0 4 -28
15 -62 25 -68 19 -138 77 -138 115 0 11 -6 21 -13 21 -16 0 -47 -31 -47 -46 0
-16 52 -60 86 -73 19 -7 31 -19 30 -29 -1 -12 14 -19 64 -29 36 -7 71 -10 78
-8 7 3 10 0 7 -5 -3 -6 -3 -10 2 -10 4 -1 28 -19 53 -42 43 -39 29 -35 -17 5
-12 11 -26 18 -32 16 -7 -3 123 -108 167 -135 2 -2 -1 -19 -8 -39 -9 -28 -9
-39 0 -50 10 -12 9 -15 -9 -15 -34 0 -55 -59 -55 -160 -1 -87 18 -146 58 -179
14 -12 13 -18 -9 -62 -34 -66 -32 -95 8 -133 l33 -31 -22 -50 c-23 -51 -32
-57 -14 -10 9 23 6 30 -22 55 -17 16 -58 43 -91 61 -53 28 -61 30 -74 16 -14
-14 -10 -21 37 -71 29 -31 70 -64 91 -73 21 -10 39 -21 39 -24 0 -3 -51 -25
-112 -49 -255 -97 -571 -256 -768 -384 -253 -165 -452 -405 -491 -592 -15 -76
-6 -125 32 -169 55 -62 154 -74 292 -36 106 29 347 125 437 174 203 112 360
276 481 504 38 71 41 75 36 38 -4 -22 -7 -78 -8 -125 -1 -57 -4 -73 -8 -50 -3
19 -12 35 -18 34 -7 -1 -20 -2 -28 -2 -16 -2 -138 -149 -162 -195 -29 -57 -65
-193 -67 -257 -3 -72 -32 -180 -48 -180 -5 0 -8 -6 -5 -14 4 -9 -8 -27 -29
-45 -19 -17 -31 -31 -27 -31 3 0 -6 -14 -22 -30 -16 -17 -35 -30 -42 -30 -21
0 -15 -15 17 -38 37 -28 53 -28 45 -2 -8 26 21 74 41 66 9 -4 14 2 14 17 1 31
25 73 34 58 13 -20 23 -12 18 14 -2 13 -1 32 2 41 6 16 8 15 21 -2 13 -17 14
-11 15 64 0 63 3 82 14 82 27 0 76 145 76 227 0 36 3 43 20 43 10 0 36 15 56
32 29 26 35 28 31 13 -28 -90 -59 -476 -40 -488 6 -4 7 -24 2 -54 -11 -69 -11
-257 1 -287 7 -19 5 -48 -6 -103 -9 -42 -14 -97 -11 -121 4 -34 -3 -67 -29
-141 -18 -53 -34 -106 -34 -119 0 -19 -4 -22 -20 -17 -11 4 -20 2 -20 -4 0 -6
7 -11 16 -11 11 0 5 -16 -25 -57 -25 -36 -36 -60 -30 -64 8 -5 8 -13 0 -28
-13 -24 -23 -26 -52 -11 -15 8 -19 7 -19 -4 0 -18 30 -36 58 -36 11 0 22 -7
26 -15 6 -17 60 -21 54 -4 -2 6 -7 9 -11 7 -5 -2 -12 4 -17 13 -6 10 -1 35 15
75 14 32 25 67 25 77 0 20 16 23 24 5 3 -7 4 -1 1 15 -4 20 -1 27 9 27 10 0
13 6 10 15 -9 23 48 194 65 195 8 0 11 6 7 16 -3 8 -2 13 3 10 12 -8 25 366
17 454 -11 110 -7 515 7 634 11 104 12 91 12 -235 0 -324 2 -349 23 -433 27
-109 78 -238 131 -334 89 -162 255 -349 357 -404 l42 -22 54 35 c67 45 182
162 257 263 148 197 251 469 282 746 11 97 8 329 -6 450 l-5 45 18 -55 c25
-75 81 -199 103 -231 17 -24 27 -118 31 -279 0 -8 -17 -89 -38 -179 -34 -151
-36 -165 -21 -176 12 -8 17 -26 16 -56 0 -33 -2 -39 -8 -24 -6 14 -11 1 -17
-50 -4 -38 -7 -78 -5 -88 1 -10 -3 -25 -11 -34 -11 -14 -10 -15 10 -9 20 7 22
4 22 -25 0 -59 22 -162 31 -148 6 10 9 2 9 -21 0 -20 -5 -41 -12 -48 -15 -15
-2 -28 14 -14 10 8 18 -8 37 -75 l23 -84 -21 -15 c-12 -9 -19 -20 -16 -25 10
-16 44 -10 65 11 11 11 28 20 39 20 20 0 48 27 38 37 -4 3 -13 1 -21 -6 -9 -8
-21 -8 -40 -1 -27 10 -34 26 -14 32 7 3 -3 33 -30 87 -38 74 -57 123 -31 79 5
-10 15 -18 21 -18 7 0 6 5 -2 15 -6 8 -20 45 -29 82 -10 37 -21 79 -26 92 -5
16 -4 21 4 17 8 -5 11 31 11 126 0 73 4 149 10 168 34 127 59 545 34 570 -6 6
-10 30 -7 53 3 36 -5 61 -60 174 -82 166 -125 214 -128 141 -1 -26 -2 -28 -5
-8 -3 14 -14 83 -25 153 -12 71 -19 130 -17 133 3 2 25 -25 51 -60 26 -35 65
-80 87 -100 34 -30 44 -35 60 -26 11 6 20 21 20 34 0 28 -56 102 -124 164 -40
37 -53 43 -82 40 -35 -3 -36 -1 -74 72 -49 92 -44 105 36 83 30 -9 57 -13 61
-9 11 10 -51 80 -85 96 -17 8 -32 21 -32 28 0 23 56 -15 103 -70 24 -29 100
-136 168 -238 138 -208 219 -297 344 -379 272 -179 648 -281 833 -226 101 30
163 122 147 219 -36 216 -273 461 -595 615 -141 67 -297 123 -323 115 -14 -4
-17 -3 -12 6 5 9 1 10 -15 5 -17 -5 -21 -4 -15 6 6 9 3 11 -8 6 -10 -4 -17 -2
-17 4 0 6 -7 8 -17 5 -9 -4 -19 -2 -23 3 -6 10 -287 83 -368 96 l-44 7 49 33
c27 18 54 40 62 49 16 19 8 46 -15 46 -25 0 -129 -58 -158 -89 -21 -22 -33
-26 -62 -23 -28 4 -34 8 -28 21 18 41 16 96 -6 124 -57 72 -208 139 -356 157
-189 24 -393 -27 -459 -114 -29 -38 -42 -102 -26 -126 9 -13 16 -13 58 4 201
78 210 80 348 80 137 -1 207 -16 345 -75 66 -28 65 -28 58 -35 -3 -3 -28 4
-55 15 -106 46 -185 63 -318 68 -147 6 -211 -5 -345 -58 -78 -31 -81 -31 -100
-14 -11 10 -20 31 -20 47 0 37 40 115 77 150 33 31 148 72 248 88 38 6 71 13
74 15 2 3 10 26 17 52 9 35 13 41 13 21 1 -15 -3 -38 -9 -52 -9 -25 -8 -26 31
-26 36 0 39 2 29 19 -16 31 -12 81 11 117 11 19 23 34 26 34 2 0 -5 -15 -16
-34 -23 -37 -26 -68 -10 -113 9 -27 16 -31 60 -37 77 -10 188 -52 246 -92 51
-35 54 -36 73 -19 75 68 62 199 -29 277 -22 19 -41 43 -41 54 0 34 -39 84 -82
105 -31 15 -49 33 -63 63 -14 29 -32 47 -62 61 -29 14 -42 26 -43 40 0 28 51
133 84 172 16 19 22 34 16 38 -5 3 -14 3 -20 0 -17 -11 -79 -129 -91 -177
l-13 -48 -71 0 -71 0 -12 48 c-13 47 -88 182 -101 182 -4 0 -11 -3 -14 -6z
m-629 -64 c3 -21 2 -22 -12 -11 -19 16 -21 44 -3 39 6 -3 14 -15 15 -28z m353
-247 c13 -16 12 -17 -3 -4 -10 7 -18 15 -18 17 0 8 8 3 21 -13z m548 -3 c50
-9 144 -50 166 -71 6 -6 -15 1 -46 16 -111 50 -229 56 -344 16 -30 -11 -55
-18 -55 -15 0 9 70 39 120 50 70 16 95 16 159 4z m37 -114 c28 -7 60 -19 70
-25 16 -11 14 -11 -16 -6 -168 29 -218 28 -329 -2 -46 -12 -12 16 37 31 60 19
173 20 238 2z m-6 -60 c0 -2 -8 -10 -17 -17 -16 -13 -17 -12 -4 4 13 16 21 21
21 13z m-140 -79 c0 -12 0 -11 -24 28 l-17 30 20 -24 c12 -13 21 -28 21 -34z
m-240 26 c0 -4 -9 -16 -20 -28 -11 -11 -23 -35 -26 -53 -6 -29 -4 -32 16 -32
13 0 33 8 44 17 15 13 14 10 -3 -10 -30 -33 -75 -37 -91 -6 -16 29 -3 75 27
99 25 20 53 27 53 13z m610 -23 c35 -35 20 -83 -32 -95 -49 -12 -92 67 -56
103 19 19 66 14 88 -8z m-106 -443 c111 -21 119 -25 134 -52 9 -18 16 -55 17
-91 0 -50 -5 -68 -28 -102 -15 -23 -46 -54 -68 -69 -41 -27 -43 -27 -249 -31
-330 -7 -381 5 -427 98 -42 83 -17 212 44 226 15 3 46 11 68 16 162 42 306 43
509 5z m436 -132 c69 -20 216 -63 328 -97 112 -33 205 -58 208 -56 4 5 -190
66 -476 149 -91 26 -151 48 -135 49 32 0 242 -48 330 -76 107 -34 305 -116
300 -124 -3 -5 3 -8 12 -8 10 1 54 -16 98 -37 78 -37 79 -38 50 -46 -27 -8
-27 -8 8 -4 20 2 37 0 37 -4 0 -4 15 -12 33 -19 58 -21 214 -116 269 -163 152
-131 229 -327 168 -426 -57 -94 -239 -108 -486 -38 -113 32 -328 139 -419 207
-85 65 -136 127 -270 328 -56 85 -135 202 -175 259 l-72 104 44 -34 c102 -81
232 -251 268 -351 24 -70 49 -126 50 -112 0 6 -9 33 -21 59 -11 25 -19 49 -16
51 2 2 35 -39 72 -91 38 -52 70 -95 72 -95 6 0 -5 17 -67 105 -31 44 -82 121
-114 170 -78 120 -151 209 -210 256 -27 21 -45 39 -41 39 11 0 62 -38 170
-125 55 -45 156 -124 224 -176 133 -101 174 -136 209 -184 20 -28 23 -29 35
-13 13 16 18 11 61 -52 50 -73 136 -158 211 -210 25 -17 45 -29 45 -27 0 3
-40 39 -90 81 -79 68 -218 232 -206 244 3 2 38 -6 77 -18 54 -16 110 -46 215
-116 141 -94 201 -144 263 -219 l33 -40 -23 44 c-31 57 -131 148 -249 226
-104 68 -112 76 -163 153 -41 60 -48 58 101 38 114 -15 165 -37 261 -110 98
-75 163 -164 187 -255 l13 -46 -3 76 c-2 61 -8 86 -32 128 -34 64 -160 185
-235 226 -58 32 -40 31 -299 22 -30 -1 -55 5 -74 18 l-29 19 34 9 c19 5 81 7
139 5 102 -5 104 -5 55 8 -61 17 -157 18 -222 3 -48 -11 -49 -11 -128 36 -44
27 -195 106 -335 178 -140 71 -246 127 -235 124 11 -4 76 -23 145 -42z m-33
-37 c48 -23 149 -75 223 -116 308 -169 380 -214 420 -259 43 -50 50 -67 23
-59 -19 5 -79 20 -125 30 -21 5 -28 3 -28 -9 0 -8 -3 -15 -6 -15 -3 0 -36 26
-72 58 -37 32 -129 105 -205 161 -76 56 -171 128 -211 159 -39 31 -83 65 -96
74 -41 28 -17 20 77 -24z m-1500 -206 c-208 -104 -386 -197 -395 -206 -14 -15
257 119 323 159 35 21 337 163 395 185 54 20 55 20 30 0 -14 -11 -73 -50 -131
-86 -59 -37 -169 -111 -245 -165 -104 -75 -146 -99 -169 -99 -49 0 -214 -30
-274 -50 -51 -17 -52 -17 -35 0 54 52 271 182 448 270 176 87 391 179 421 180
6 0 -160 -85 -368 -188z m2167 117 c130 -59 260 -132 313 -176 15 -13 -17 5
-72 39 -55 34 -161 90 -235 123 -74 34 -146 67 -160 73 l-25 12 25 -6 c14 -3
83 -33 154 -65z m-1758 -8 c0 -11 -4 -17 -8 -15 -4 3 -27 -26 -51 -63 -47 -72
-267 -495 -249 -478 6 6 58 101 116 213 94 181 175 316 184 307 2 -1 -42 -93
-98 -204 -196 -390 -305 -513 -575 -648 -176 -89 -360 -138 -489 -131 -67 3
-79 7 -103 31 -25 24 -28 35 -28 90 0 50 7 76 36 137 60 124 181 265 288 335
44 29 203 71 303 81 l73 7 -19 -22 c-21 -24 -40 -29 -211 -61 -66 -12 -136
-31 -156 -40 -19 -10 -74 -59 -121 -109 -106 -111 -158 -205 -158 -287 0 -68
14 -71 17 -4 2 70 46 158 130 260 77 93 118 127 166 140 l32 9 -24 -17 c-49
-34 -109 -88 -137 -122 -27 -34 -26 -34 17 6 66 61 120 100 161 117 41 17 193
50 208 45 9 -3 -44 -94 -76 -129 -10 -11 -60 -49 -111 -86 -113 -79 -219 -176
-267 -242 -20 -27 -36 -51 -36 -54 0 -3 51 45 113 107 117 117 278 236 403
299 119 59 121 59 74 -18 -22 -37 -71 -108 -107 -158 -116 -162 -119 -166 -69
-112 54 59 141 177 191 260 22 38 42 60 54 60 10 0 34 19 54 43 55 66 377 397
377 388 0 -4 -8 -20 -18 -34 -28 -40 -84 -142 -79 -142 3 0 26 34 52 75 39 62
130 185 138 185 2 0 3 -9 3 -19z m-72 -29 c-16 -13 -23 -21 -15 -17 9 5 12 4
7 -3 -4 -6 -12 -9 -19 -6 -15 5 -407 -387 -407 -407 0 -11 -2 -11 -9 1 -8 12
-17 12 -68 -4 -32 -10 -77 -28 -100 -41 l-43 -23 16 30 c30 57 104 125 262
241 141 102 205 146 337 229 51 32 77 32 39 0z m161 -63 c4 -6 5 -12 3 -15 -7
-7 -98 -32 -98 -28 0 3 12 16 26 29 28 26 58 32 69 14z m738 -15 c16 -14 27
-27 25 -29 -6 -6 -98 18 -98 26 0 8 29 28 40 29 3 0 18 -12 33 -26z m-537 -59
c28 -21 241 -21 272 1 21 14 32 14 134 -1 119 -17 160 -34 177 -72 16 -36 13
-39 -10 -9 -38 49 -230 82 -301 52 -52 -22 -223 -22 -278 0 -55 22 -195 15
-242 -13 -38 -22 -57 -75 -56 -163 l0 -55 14 74 c15 81 34 111 73 111 70 0
167 -116 197 -236 l6 -24 -143 1 c-79 1 -155 4 -169 8 -31 8 -36 42 -21 153
19 137 43 160 188 176 117 14 137 13 159 -3z m1835 -42 c13 -16 12 -17 -3 -4
-10 7 -18 15 -18 17 0 8 8 3 21 -13z m-56 -51 c69 -37 206 -175 239 -239 43
-87 29 -92 -25 -9 -93 141 -252 248 -392 262 -60 7 -67 9 -42 15 56 14 166 -1
220 -29z m-1265 -2 c17 -17 20 -33 20 -125 0 -76 -4 -107 -12 -110 -23 -8
-278 -10 -278 -3 0 27 46 122 77 158 79 92 151 122 193 80z m-1620 -4 c0 -2
-18 -15 -40 -30 -22 -14 -40 -24 -40 -22 0 5 71 56 77 56 2 0 3 -2 3 -4z
m1210 -388 c0 -249 -3 -379 -10 -372 -9 9 -2 754 7 754 1 0 3 -172 3 -382z
m-95 113 c33 -3 58 -10 56 -16 -1 -5 -8 -9 -14 -7 -5 2 -69 6 -141 9 l-131 6
3 -66 c4 -64 4 -65 23 -46 25 25 51 24 67 -1 7 -12 17 -18 22 -15 17 10 30
-33 26 -86 -4 -52 -19 -74 -46 -63 -8 3 -22 7 -30 8 -8 1 -25 22 -37 47 l-22
44 -1 -90 c0 -49 -3 -101 -7 -114 -6 -22 -9 -23 -67 -16 -33 3 -67 12 -75 18
-11 9 -13 46 -9 192 3 99 9 188 13 198 7 16 20 17 159 11 83 -4 178 -9 211
-13z m632 -21 c1 -14 0 -18 -3 -7 -4 13 -16 17 -52 17 l-47 0 -17 -88 c-12
-61 -31 -116 -66 -184 l-49 -98 36 -1 c32 -2 31 -2 -14 -9 -82 -13 -219 -11
-238 3 -14 10 -17 42 -23 194 l-7 182 24 5 c34 8 151 12 314 12 l140 -1 2 -25z
m-60 -212 c-2 -13 -4 -5 -4 17 -1 22 1 32 4 23 2 -10 2 -28 0 -40z m-1192 -96
c-12 -46 -26 -86 -30 -90 -4 -4 -5 2 -2 13 29 104 49 166 52 163 2 -2 -7 -41
-20 -86z m1175 -2 c-6 -15 -23 -32 -36 -39 -38 -17 -54 -13 -18 5 32 16 53 48
55 87 2 21 2 21 6 -1 3 -13 -1 -36 -7 -52z m88 -127 l-1 -58 -6 51 -6 52 -54
-17 c-52 -16 -54 -17 -71 -73 -22 -72 -50 -111 -96 -133 -46 -21 -167 -37
-214 -27 -41 9 -46 26 -35 140 l7 72 91 0 c108 0 251 16 310 35 75 23 77 22
75 -42z m-838 7 c116 -13 217 -12 243 2 20 10 21 10 8 -5 -11 -14 -35 -17
-151 -17 l-137 0 -7 -92 c-4 -50 -9 -95 -12 -100 -8 -13 -62 -9 -71 5 -4 6
-13 50 -20 97 l-12 85 4 -89 c6 -99 10 -109 51 -137 l29 -20 -30 7 c-68 15
-69 19 -81 188 l-7 99 54 -7 c30 -4 92 -11 139 -16z m827 -107 c-3 -10 -5 -4
-5 12 0 17 2 24 5 18 2 -7 2 -21 0 -30z m-540 -15 c-3 -8 -6 -5 -6 6 -1 11 2
17 5 13 3 -3 4 -12 1 -19z m529 -43 c-8 -32 -79 -79 -152 -100 -58 -17 -247
-38 -291 -33 -15 2 33 9 107 15 193 17 310 64 326 129 4 14 9 23 11 20 3 -3 2
-17 -1 -31z m-546 -110 c-9 -11 -32 -14 -89 -13 l-76 2 79 3 c70 4 79 6 84 26
3 12 7 16 10 9 2 -7 -2 -19 -8 -27z m-253 9 c-3 -3 -12 -4 -19 -1 -8 3 -5 6 6
6 11 1 17 -2 13 -5z m-57 -36 c70 -17 131 -21 340 -25 232 -4 264 -3 358 16
57 12 107 19 112 16 18 -11 11 -41 -25 -113 -60 -119 -165 -181 -346 -203
-161 -19 -435 29 -486 86 -24 27 -63 144 -71 214 -5 40 -3 44 14 37 10 -4 57
-17 104 -28z m123 25 c-7 -2 -21 -2 -30 0 -10 3 -4 5 12 5 17 0 24 -2 18 -5z
m-98 -322 c5 -9 22 -44 36 -78 27 -63 25 -88 -4 -55 -17 19 -87 145 -87 156 0
13 45 -6 55 -23z m1012 -128 c-2 -16 -4 -5 -4 22 0 28 2 40 4 28 2 -13 2 -35
0 -50z m-1290 -5 c-3 -7 -5 -2 -5 12 0 14 2 19 5 13 2 -7 2 -19 0 -25z m10
-40 c-3 -8 -6 -5 -6 6 -1 11 2 17 5 13 3 -3 4 -12 1 -19z m828 -3 c-91 -43
-170 -58 -280 -52 -97 5 -225 37 -225 57 0 5 25 0 55 -11 102 -36 193 -43 301
-25 53 9 115 25 138 35 22 11 46 19 51 19 6 0 -13 -10 -40 -23z"/>
<path d="M2360 3193 c-100 -14 -216 -44 -227 -59 -39 -53 -21 -155 37 -218
l39 -41 243 -3 c134 -2 258 0 276 3 41 8 97 57 124 109 16 31 19 51 15 94 -3
30 -11 60 -17 66 -28 28 -384 64 -490 49z"/>
<path d="M3620 2889 c75 -28 211 -69 224 -68 6 0 -50 20 -124 44 -137 45 -200
60 -100 24z"/>
<path d="M3521 2624 c47 -50 112 -133 143 -183 58 -92 80 -118 50 -58 -40 76
-118 178 -195 252 l-83 80 85 -91z"/>
<path d="M3410 2646 c0 -2 8 -10 18 -17 15 -13 16 -12 3 4 -13 16 -21 21 -21
13z"/>
<path d="M3511 2503 c49 -74 83 -118 64 -83 -19 33 -106 160 -111 160 -2 0 19
-35 47 -77z"/>
<path d="M3950 2535 c19 -19 36 -35 39 -35 3 0 -10 16 -29 35 -19 19 -36 35
-39 35 -3 0 10 -16 29 -35z"/>
<path d="M4170 2447 c0 -2 19 -17 41 -32 23 -15 61 -43 84 -64 23 -20 18 -13
-11 14 -47 45 -114 93 -114 82z"/>
<path d="M3490 2417 c0 -11 128 -92 202 -127 108 -52 220 -80 338 -85 l95 -5
-100 15 c-197 28 -319 70 -456 156 -74 48 -79 51 -79 46z"/>
<path d="M3935 2386 c10 -16 26 -44 37 -63 11 -18 22 -33 25 -33 7 0 -35 71
-59 100 l-20 25 17 -29z"/>
<path d="M1830 2660 c-6 -11 -8 -20 -6 -20 3 0 10 9 16 20 6 11 8 20 6 20 -3
0 -10 -9 -16 -20z"/>
<path d="M1612 2438 c-40 -59 -127 -228 -117 -228 2 0 20 32 40 71 20 39 54
100 75 135 44 73 45 85 2 22z"/>
<path d="M1615 2334 c-31 -52 -69 -109 -85 -127 -29 -34 -117 -82 -235 -129
-38 -15 -62 -27 -52 -28 45 -1 308 124 296 141 -2 2 15 31 38 64 46 69 107
175 100 175 -2 0 -30 -43 -62 -96z"/>
<path d="M1198 2228 c-42 -55 -89 -124 -104 -152 -33 -62 -22 -52 37 34 25 36
69 98 99 138 29 40 51 75 48 77 -2 3 -38 -41 -80 -97z"/>
<path d="M1109 2293 c-13 -16 -12 -17 4 -4 9 7 17 15 17 17 0 8 -8 3 -21 -13z"/>
<path d="M909 2206 c-35 -35 -72 -79 -82 -98 -17 -31 -17 -31 0 -8 10 14 49
58 87 98 86 89 82 95 -5 8z"/>
<path d="M2113 2580 c0 -36 2 -50 4 -32 2 17 2 47 0 65 -2 17 -4 3 -4 -33z"/>
<path d="M2041 2229 c1 -79 4 -155 9 -169 4 -14 5 49 2 140 -2 91 -6 167 -8
169 -2 2 -4 -61 -3 -140z"/>
<path d="M1992 2189 c-2 -139 7 -179 39 -166 10 4 9 6 -3 6 -10 1 -19 2 -20 4
0 1 -4 67 -8 147 l-6 145 -2 -136z"/>
<path d="M2533 2363 c9 -2 23 -2 30 0 6 3 -1 5 -18 5 -16 0 -22 -2 -12 -5z"/>
<path d="M2044 1815 c0 -49 1 -71 3 -48 2 23 2 64 0 90 -2 26 -3 8 -3 -42z"/>
<path d="M2845 1624 c-124 -34 -386 -44 -607 -23 -140 14 -138 15 -138 -78 0
-49 -4 -67 -20 -83 -19 -19 -19 -20 -1 -30 55 -29 222 -62 341 -67 189 -8 305
23 402 106 40 34 98 137 98 174 0 20 -8 20 -75 1z m-55 -44 c0 -55 -134 -148
-237 -165 -39 -6 -44 -5 -52 17 -5 13 -10 51 -12 83 l-4 60 144 7 c79 4 146
10 149 13 9 9 12 6 12 -15z"/>
<path d="M2021 1615 c-1 -17 26 -111 37 -131 6 -11 12 -14 12 -8 0 14 -48 152
-49 139z"/>
<path d="M3325 3556 c-18 -13 -18 -28 1 -92 4 -16 -9 -39 -55 -94 -79 -94 -83
-144 -7 -86 18 13 40 26 51 29 18 4 17 5 -3 6 -22 1 -22 2 -6 27 10 14 31 31
48 39 25 11 27 14 10 14 -20 1 -20 4 -11 41 9 33 8 42 -6 58 -21 23 -22 38 -1
50 10 5 12 12 7 15 -6 4 -18 0 -28 -7z"/>
<path d="M1737 3533 c-4 -3 -7 -15 -7 -25 0 -10 -6 -18 -14 -18 -21 0 -12 -69
15 -115 19 -32 20 -38 6 -32 -9 3 -17 2 -17 -3 0 -6 9 -10 19 -10 11 0 23 -4
26 -10 3 -5 1 -10 -6 -10 -7 0 6 -14 29 -31 25 -19 49 -29 58 -25 19 7 20 4
-60 106 -51 65 -50 62 -30 153 6 25 -4 36 -19 20z"/>
<path d="M3204 2465 c-3 -8 4 -30 15 -49 31 -50 148 -156 173 -156 11 0 37
-18 59 -42 37 -41 38 -46 39 -115 0 -52 -4 -76 -16 -87 -12 -13 -12 -16 -2
-16 8 0 18 4 24 10 7 7 9 -1 6 -24 -4 -37 14 -81 47 -110 12 -11 21 -29 21
-40 0 -14 3 -17 8 -8 6 9 14 6 32 -13 20 -21 22 -29 13 -45 -10 -15 -9 -19 5
-25 9 -3 21 0 27 8 6 8 19 16 29 18 24 5 33 29 11 29 -9 0 -27 11 -41 25 -14
14 -29 25 -34 25 -6 0 -10 6 -10 13 0 8 -9 22 -21 33 -12 10 -32 40 -45 67
-20 38 -21 47 -9 47 18 0 18 5 4 90 -6 36 -11 71 -11 78 -1 6 -5 12 -9 12 -11
0 1 32 15 43 6 5 2 6 -9 3 -21 -6 -39 10 -132 113 -94 105 -174 155 -189 116z
m196 -172 c0 -9 -58 38 -95 78 -32 34 -26 30 28 -16 37 -32 67 -60 67 -62z"/>
</g>
</svg>